<?xml version="1.0" standalone="no"?>
<!DOCTYPE svg PUBLIC "-//W3C//DTD SVG 20010904//EN"
 "http://www.w3.org/TR/2001/REC-SVG-20010904/DTD/svg10.dtd">
<svg version="1.0" xmlns="http://www.w3.org/2000/svg"
 width="512.000000pt" height="512.000000pt" viewBox="0 0 512.000000 512.000000"
 preserveAspectRatio="xMidYMid meet">
<metadata>
Created by potrace 1.14, written by Peter Selinger 2001-2017
</metadata>
<g transform="translate(0.000000,512.000000) scale(0.100000,-0.100000)"
fill="#000000" stroke="none">
<path d="M1765 5109 c-310 -58 -549 -199 -739 -438 -73 -91 -118 -170 -172
-298 l-14 -31 -142 2 c-178 3 -212 -3 -252 -43 l-31 -31 0 -296 0 -296 37 -34
c21 -19 48 -35 60 -35 13 -1 90 -2 171 -3 l148 -1 32 -81 c19 -45 52 -114 76
-153 41 -69 168 -229 208 -261 10 -8 41 -33 68 -56 154 -126 349 -211 560
-244 84 -13 1397 -18 1520 -6 98 10 259 53 347 93 76 34 206 107 218 122 3 3
28 24 55 46 147 116 276 295 350 485 l21 55 166 1 c154 1 168 3 197 23 58 42
60 52 61 347 0 251 -1 271 -19 301 -35 57 -65 65 -248 66 l-164 2 -53 110
c-120 247 -315 441 -558 555 -80 37 -209 79 -293 96 -58 11 -1550 14 -1610 3z"/>
<path d="M2367 2523 c-1 -1 -58 -4 -127 -7 -292 -14 -508 -46 -609 -93 -73
-33 -223 -218 -305 -374 -338 -651 -129 -1438 487 -1832 218 -140 475 -215
736 -215 155 1 249 13 391 53 291 82 554 263 736 507 70 94 166 269 193 353
63 195 83 312 82 485 0 74 -3 146 -6 160 -3 14 -8 45 -11 70 -27 224 -180 534
-353 715 -70 73 -125 101 -241 120 -19 3 -42 8 -50 10 -8 2 -35 7 -60 10 -25
3 -61 8 -80 10 -113 16 -340 27 -588 29 -107 1 -194 0 -195 -1z"/>
</g>
</svg>
